PathFileType	4	(X/Y/Z)	C:/Users/opensim2020/Desktop/walking_exp_matlab/subject01_walking13_straight_04.trc																																																																																																																												
DataRate	CameraRate	NumFrames	NumMarkers	Units	OrigDataRate	OrigDataStartFrame	OrigNumFrames																																																																																																																								
100	100	4	42	mm	100	2227	135																																																																																																																								
Frame#	Time	LFHD			RFHD			LBHD			RBHD			C7			T10			CLAV			STRN			RBAK			LSHO			LUPA			LELB			LFRM			LWRA			LWRB			LFIN			RSHO			RUPA			RELB			RFRM			RWRA			RWRB			RFIN			LASI			RASI			LPSI			RPSI			LTHI			LKNE			LTIB			LANK			LHEE			LTOE			RTHI			RKNE			RTIB			RANK			RHEE			RTOE			*39			*40			*41		
		X1	Y1	Z1	X2	Y2	Z2	X3	Y3	Z3	X4	Y4	Z4	X5	Y5	Z5	X6	Y6	Z6	X7	Y7	Z7	X8	Y8	Z8	X9	Y9	Z9	X10	Y10	Z10	X11	Y11	Z11	X12	Y12	Z12	X13	Y13	Z13	X14	Y14	Z14	X15	Y15	Z15	X16	Y16	Z16	X17	Y17	Z17	X18	Y18	Z18	X19	Y19	Z19	X20	Y20	Z20	X21	Y21	Z21	X22	Y22	Z22	X23	Y23	Z23	X24	Y24	Z24	X25	Y25	Z25	X26	Y26	Z26	X27	Y27	Z27	X28	Y28	Z28	X29	Y29	Z29	X30	Y30	Z30	X31	Y31	Z31	X32	Y32	Z32	X33	Y33	Z33	X34	Y34	Z34	X35	Y35	Z35	X36	Y36	Z36	X37	Y37	Z37	X38	Y38	Z38	X39	Y39	Z39	X40	Y40	Z40	X41	Y41	Z41	X42	Y42	Z42
																																																																																																																															
119	1.18	580.32697	1639.78503	-1542.7594	568.84723	1645.52014	-1429.33069	463.94382	1600.4541	-1560.79163	448.88339	1605.396	-1440.62732	403.82098	1406.2168	-1511.43909	371.28418	1111.39795	-1484.79077	547.88928	1339.09387	-1493.14612	594.91571	1187.55457	-1487.59436	342.69626	1214.34277	-1425.14966	500.07663	1359.20117	-1661.16052	446.96674	1182.99109	-1742.44531	401.02191	1038.37073	-1743.82629	421.89029	923.39105	-1759.05103	479.14191	798.52594	-1727.13257	425.29462	801.2276	-1756.01331	461.21497	725.89282	-1761.69714	469.63681	1375.90234	-1348.8031	387.63324	1187.78674	-1246.78528	385.09735	1060.42786	-1231.78247	453.60492	953.67346	-1213.35803	566.5343	879.11859	-1251.65088	533.16101	860.0882	-1209.0437	600.40637	812.6109	-1213.57263	565.00476	915.53363	-1576.84644	541.1817	904.4978	-1360.92834	373.69662	920.63043	-1544.07983	361.2059	919.19092	-1400.10291	620.57263	605.65112	-1647.08691	647.24841	471.65878	-1634.56372	612.99847	286.16553	-1652.95618	591.35168	67.68048	-1610.15442	544.10187	37.3696	-1560.98572	739.44922	30.00438	-1608.74133	462.30936	567.80841	-1307.24963	445.86938	410.10016	-1323.87842	287.98837	329.99832	-1328.46887	126.29412	205.52516	-1378.8075	85.41473	234.65427	-1434.35571	125.28976	58.70578	-1397.58948	563.18536	1678.43799	-1454.60364	-1973.14258	1023.3631	3101.90723	-2012.49109	1022.12848	3140.65601
120	1.19	593.65356	1640.36169	-1543.57996	581.53461	1646.51672	-1430.25549	477.54333	1601.00305	-1562.06543	461.62363	1606.45007	-1442.12134	416.99585	1407.20764	-1512.25012	383.47214	1112.47131	-1485.90881	560.66809	1339.78967	-1493.10034	607.5592	1188.22559	-1487.48035	355.06418	1215.46204	-1425.7384	513.80121	1359.84558	-1661.38184	463.88553	1182.91125	-1743.1084	419.9942	1037.49927	-1745.44373	443.39063	922.98962	-1760.50903	502.89276	799.34747	-1727.94202	449.37469	800.94672	-1757.38513	487.18683	726.73633	-1763.0957	481.90359	1376.57642	-1349.099	398.79666	1188.49219	-1247.82202	394.98441	1061.26514	-1233.90845	460.53088	952.45087	-1214.36475	571.59882	874.1684	-1250.66028	537.00244	856.31018	-1208.66614	602.69641	806.81763	-1211.79041	577.28711	916.53461	-1578.00452	554.67542	905.99261	-1361.23083	386.15765	921.20544	-1544.90247	373.59619	918.84448	-1400.84363	628.80536	604.79944	-1647.20129	654.61572	470.69733	-1634.35022	616.73413	286.17108	-1652.52881	592.17462	67.93223	-1609.67224	544.39868	37.68449	-1560.61182	740.00037	29.47194	-1608.47131	482.772	566.92059	-1307.80249	470.35364	409.67181	-1323.91553	311.76855	331.86594	-1329.20398	147.28807	212.30385	-1381.70605	107.36897	240.69971	-1439.12512	144.82062	65.07483	-1395.67517	575.8855	1679.34375	-1455.86975	-1973.11462	1023.41211	3101.97485	-2012.5105	1022.0705	3140.73682
121	1.2	607.05585	1641.08972	-1544.03442	594.31628	1647.50964	-1430.81189	490.91531	1601.75903	-1563.08716	474.42462	1607.67236	-1443.21448	430.00699	1408.49231	-1512.88452	395.74088	1113.68518	-1486.68225	573.33936	1340.81104	-1492.91724	620.0022	1189.04993	-1487.24207	367.31372	1216.65991	-1426.51038	527.31763	1360.79102	-1661.4325	480.54242	1183.16785	-1743.74951	438.99744	1037.07385	-1747.07324	465.17642	922.92426	-1761.86292	527.28229	800.81274	-1728.72278	474.04279	801.15527	-1758.70923	513.90851	728.13666	-1764.39258	493.93466	1377.44299	-1349.36743	410.16721	1189.41113	-1248.44202	405.07474	1062.01025	-1235.91602	467.09653	951.27484	-1215.11853	576.40601	869.42609	-1249.66577	540.30768	852.7251	-1208.15198	604.3999	801.16876	-1210.05054	589.48413	917.4256	-1578.8075	565.84833	906.60559	-1362.33594	398.44589	922.02283	-1545.68298	385.59454	918.83453	-1401.4967	636.53088	604.16797	-1647.69629	661.95746	470.5665	-1633.6604	620.72272	286.51666	-1652.22009	592.63928	68.3097	-1609.23511	544.69037	38.08376	-1560.28162	740.37079	29.29583	-1608.07117	503.12186	567.06494	-1308.37646	494.59354	409.89001	-1324.01782	335.70386	333.64163	-1329.63489	169.23003	218.46193	-1385.33923	129.2962	245.12067	-1444.10913	168.35426	70.98569	-1393.93176	588.86169	1680.39734	-1456.66919	-1973.20105	1023.47601	3101.87891	-2012.52869	1021.94	3140.69946
122	1.21	620.4801	1641.97607	-1544.13184	607.07507	1648.6792	-1431.03687	504.41064	1602.88098	-1563.80652	487.26154	1609.10974	-1443.97424	442.79062	1409.77673	-1513.25989	407.83755	1115.09558	-1487.26477	585.84784	1341.8158	-1492.5592	632.29181	1190.09705	-1486.93591	379.50171	1217.93323	-1427.48682	540.67474	1361.89648	-1661.2738	497.02411	1183.72583	-1744.323	458.01215	1036.73157	-1748.62134	487.18097	923.28546	-1763.11914	552.18878	802.90173	-1729.32874	499.33545	801.85083	-1759.84839	541.16632	730.25653	-1765.62585	505.97473	1378.41199	-1349.53748	421.59506	1190.44189	-1248.88098	415.08447	1062.82666	-1237.58252	473.27994	950.23364	-1215.73975	580.12115	864.62262	-1248.36987	543.14343	849.31927	-1207.50354	605.51752	795.76648	-1208.36023	601.6402	918.34998	-1579.17517	577.70465	908.10522	-1362.55713	410.55835	923.16333	-1546.38757	397.34924	919.31757	-1402.15967	644.15692	603.36603	-1647.31641	669.07825	470.47095	-1633.09155	625.01794	286.62939	-1651.97571	593.31482	68.6748	-1608.90588	544.82971	38.70479	-1560.03906	740.68634	29.11567	-1607.85913	523.02795	567.93542	-1309.01721	519.01721	411.01218	-1324.24377	360.38559	335.52521	-1331.00415	192.7547	223.27985	-1389.01025	151.73224	248.01817	-1448.34241	196.05682	76.17878	-1392.55505	602.08392	1681.68604	-1457.03308	-1973.13855	1023.58905	3101.89087	-2012.48022	1021.99536	3140.67065
